<svg xmlns="http://www.w3.org/2000/svg" width="500" height="200">

  <defs>
    <marker id="arrow" markerWidth="10" markerHeight="10" refX="0" refY="3" orient="auto" markerUnits="strokeWidth">
      <path d="M0,0 L0,6 L9,3 z" fill="black" />
    </marker>
  </defs>
  <style>
    * {
    font-family: sans-serif;
    font-size: 7pt;
    font-weight: bold;
    }
  </style>
  
  <text x="25" y="25" text-anchor="middle">GENES</text>
  <rect x="20" y="30" width="10" height="10" fill="blue" stroke="black"/>
  <rect x="20" y="45" width="10" height="10" fill="green" stroke="black"/>
  <rect x="20" y="60" width="10" height="10" fill="red" stroke="black"/>
  <rect x="20" y="75" width="10" height="10" fill="yellow" stroke="black"/>
  <rect x="20" y="90" width="10" height="10" fill="cyan" stroke="black"/>
  <rect x="20" y="105" width="10" height="10" fill="magenta" stroke="black"/>

  
  <text x="100" y="65" text-anchor="middle">ORGANSIM</text>
  <rect x="80" y="70" width="10" height="10" fill="blue" stroke="black"/>
  <rect x="90" y="70" width="10" height="10" fill="red" stroke="black"/>
  <rect x="100" y="70" width="10" height="10" fill="cyan" stroke="black"/>
  <rect x="110" y="70" width="10" height="10" fill="yellow" stroke="black"/>

  <text x="200" y="25" text-anchor="middle">POPULATION</text>
  <rect x="180" y="30" width="10" height="10" fill="green" stroke="black"/>
  <rect x="190" y="30" width="10" height="10" fill="yellow" stroke="black"/>
  <rect x="200" y="30" width="10" height="10" fill="cyan" stroke="black"/>
  <rect x="210" y="30" width="10" height="10" fill="red" stroke="black"/>

  <rect x="180" y="50" width="10" height="10" fill="magenta" stroke="black"/>
  <rect x="190" y="50" width="10" height="10" fill="green" stroke="black"/>
  <rect x="200" y="50" width="10" height="10" fill="yellow" stroke="black"/>
  <rect x="210" y="50" width="10" height="10" fill="cyan" stroke="black"/>

  <rect x="180" y="70" width="10" height="10" fill="blue" stroke="black"/>
  <rect x="190" y="70" width="10" height="10" fill="green" stroke="black"/>
  <rect x="200" y="70" width="10" height="10" fill="red" stroke="black"/>
  <rect x="210" y="70" width="10" height="10" fill="yellow" stroke="black"/>

  <rect x="180" y="90" width="10" height="10" fill="green" stroke="black"/>
  <rect x="190" y="90" width="10" height="10" fill="blue" stroke="black"/>
  <rect x="200" y="90" width="10" height="10" fill="magenta" stroke="black"/>
  <rect x="210" y="90" width="10" height="10" fill="red" stroke="black"/>

  <rect x="180" y="110" width="10" height="10" fill="cyan" stroke="black"/>
  <rect x="190" y="110" width="10" height="10" fill="yellow" stroke="black"/>
  <rect x="200" y="110" width="10" height="10" fill="blue" stroke="black"/>
  <rect x="210" y="110" width="10" height="10" fill="green" stroke="black"/>
  
  <text x="300" y="15" text-anchor="middle">EVALUATION AND</text>
  <text x="300" y="25" text-anchor="middle">SELECTION</text>
  
  <text x="250" y="38" text-anchor="middle">1</text>
  <text x="250" y="58" text-anchor="middle">0</text>
  <text x="250" y="78" text-anchor="middle">1</text>
  <text x="250" y="98" text-anchor="middle">3</text>
  <text x="250" y="118" text-anchor="middle">0</text>
  
  <text x="260" y="58" text-anchor="middle" stroke="red" fill="red">X</text>
  <text x="260" y="118" text-anchor="middle" stroke="red" fill="red">X</text>

  <rect x="280" y="30" width="10" height="10" fill="green" stroke="black"/>
  <rect x="290" y="30" width="10" height="10" fill="blue" stroke="black"/>
  <rect x="300" y="30" width="10" height="10" fill="cyan" stroke="black"/>
  <rect x="310" y="30" width="10" height="10" fill="red" stroke="black"/>

  <rect x="280" y="50" width="10" height="10" fill="blue" stroke="black"/>
  <rect x="290" y="50" width="10" height="10" fill="blue" stroke="black"/>
  <rect x="300" y="50" width="10" height="10" fill="cyan" stroke="black"/>
  <rect x="310" y="50" width="10" height="10" fill="red" stroke="black"/>

  <rect x="280" y="70" width="10" height="10" fill="blue" stroke="black"/>
  <rect x="290" y="70" width="10" height="10" fill="green" stroke="black"/>
  <rect x="300" y="70" width="10" height="10" fill="red" stroke="black"/>
  <rect x="310" y="70" width="10" height="10" fill="red" stroke="black"/>

  <rect x="280" y="90" width="10" height="10" fill="blue" stroke="black"/>
  <rect x="290" y="90" width="10" height="10" fill="blue" stroke="black"/>
  <rect x="300" y="90" width="10" height="10" fill="magenta" stroke="black"/>
  <rect x="310" y="90" width="10" height="10" fill="yellow" stroke="black"/>

  <rect x="280" y="110" width="10" height="10" fill="blue" stroke="black"/>
  <rect x="290" y="110" width="10" height="10" fill="green" stroke="black"/>
  <rect x="300" y="110" width="10" height="10" fill="magenta" stroke="black"/>
  <rect x="310" y="110" width="10" height="10" fill="red" stroke="black"/>

  <text x="400" y="25" text-anchor="middle">ANSWER</text>
  <rect x="380" y="70" width="10" height="10" fill="blue" stroke="black"/>
  <rect x="390" y="70" width="10" height="10" fill="blue" stroke="black"/>
  <rect x="400" y="70" width="10" height="10" fill="magenta" stroke="black"/>
  <rect x="410" y="70" width="10" height="10" fill="red" stroke="black"/>

  <path d="M 330 75 L 360 75" stroke="black" stroke-width="2" marker-end="url(#arrow)"/>
  <path d="M 300 120 C 300 140, 300 180, 250 180 C 200 180, 200 140, 200 140" stroke="black" fill="none" stroke-width="2" marker-end="url(#arrow)"/>
</svg>
