<?xml version="1.0" encoding="UTF-8" standalone="no"?>
<!DOCTYPE svg PUBLIC "-//W3C//DTD SVG 1.1//EN"
 "http://www.w3.org/Graphics/SVG/1.1/DTD/svg11.dtd">
<!-- Generated by graphviz version 2.44.1 (20200629.0846)
 -->
<!-- Title: G Pages: 1 -->
<svg width="429pt" height="394pt"
 viewBox="0.00 0.00 428.84 394.00" xmlns="http://www.w3.org/2000/svg" xmlns:xlink="http://www.w3.org/1999/xlink">
<g id="graph0" class="graph" transform="scale(1 1) rotate(0) translate(4 390)">
<title>G</title>
<polygon fill="white" stroke="transparent" points="-4,4 -4,-390 424.84,-390 424.84,4 -4,4"/>
<!-- 00 -->
<g id="node1" class="node">
<title>00</title>
<polygon fill="none" stroke="black" points="126.34,-313 28.34,-313 28.34,-277 126.34,-277 126.34,-313"/>
<text text-anchor="middle" x="77.34" y="-291.3" font-family="Times,serif" font-size="14.00">00 SEGMENT</text>
</g>
<!-- 05 -->
<g id="node2" class="node">
<title>05</title>
<polygon fill="none" stroke="black" points="266.84,-313 161.84,-313 161.84,-277 266.84,-277 266.84,-313"/>
<text text-anchor="middle" x="214.34" y="-291.3" font-family="Times,serif" font-size="14.00">05 ANNOTATE</text>
</g>
<!-- 00&#45;&gt;05 -->
<g id="edge2" class="edge">
<title>00&#45;&gt;05</title>
<path fill="none" stroke="black" d="M126.57,-295C134.86,-295 143.15,-295 151.43,-295"/>
<polygon fill="black" stroke="black" points="151.54,-298.5 161.54,-295 151.54,-291.5 151.54,-298.5"/>
</g>
<!-- 07 -->
<g id="node3" class="node">
<title>07</title>
<polygon fill="none" stroke="black" points="391.84,-313 302.84,-313 302.84,-277 391.84,-277 391.84,-313"/>
<text text-anchor="middle" x="347.34" y="-291.3" font-family="Times,serif" font-size="14.00">07 BACKUP</text>
</g>
<!-- 00&#45;&gt;07 -->
<g id="edge3" class="edge">
<title>00&#45;&gt;07</title>
<path fill="none" stroke="black" d="M110.22,-313.02C125.32,-320.3 143.75,-327.84 161.34,-331.5 207.03,-341 220.71,-341.3 266.34,-331.5 279.92,-328.58 293.96,-323.2 306.47,-317.45"/>
<polygon fill="black" stroke="black" points="308.2,-320.5 315.7,-313.02 305.17,-314.19 308.2,-320.5"/>
</g>
<!-- 05&#45;&gt;07 -->
<g id="edge4" class="edge">
<title>05&#45;&gt;07</title>
<path fill="none" stroke="black" d="M267.07,-295C275.63,-295 284.2,-295 292.76,-295"/>
<polygon fill="black" stroke="black" points="292.81,-298.5 302.81,-295 292.81,-291.5 292.81,-298.5"/>
</g>
<!-- 15 -->
<g id="node5" class="node">
<title>15</title>
<polygon fill="none" stroke="black" points="155.34,-211 0.16,-193 155.34,-175 310.51,-193 155.34,-211"/>
<text text-anchor="middle" x="155.34" y="-189.3" font-family="Times,serif" font-size="14.00">15 CHECK CONFIDENCE</text>
</g>
<!-- 05&#45;&gt;15 -->
<g id="edge7" class="edge">
<title>05:s&#45;&gt;15:n</title>
<path fill="none" stroke="black" d="M212.76,-266.86C203.38,-239.64 155.34,-246.5 155.34,-211"/>
<polygon fill="black" stroke="black" points="209.34,-267.66 214.34,-277 216.26,-266.58 209.34,-267.66"/>
<text text-anchor="middle" x="235.34" y="-247.8" font-family="Times,serif" font-size="14.00">Uncertain</text>
<text text-anchor="middle" x="235.34" y="-232.8" font-family="Times,serif" font-size="14.00">results</text>
</g>
<!-- 10 -->
<g id="node4" class="node">
<title>10</title>
<polygon fill="none" stroke="black" points="420.84,-211 345.84,-211 345.84,-175 420.84,-175 420.84,-211"/>
<text text-anchor="middle" x="383.34" y="-189.3" font-family="Times,serif" font-size="14.00">10 TRAIN</text>
</g>
<!-- 07&#45;&gt;10 -->
<g id="edge5" class="edge">
<title>07:s&#45;&gt;10</title>
<path fill="none" stroke="black" d="M347.34,-277C347.34,-256.65 356.56,-235.64 365.67,-219.85"/>
<polygon fill="black" stroke="black" points="368.73,-221.55 370.95,-211.2 362.75,-217.91 368.73,-221.55"/>
</g>
<!-- 15&#45;&gt;10 -->
<g id="edge6" class="edge">
<title>15&#45;&gt;10</title>
<path fill="none" stroke="black" d="M320.83,-193C329.1,-193 337.36,-193 345.63,-193"/>
<polygon fill="black" stroke="black" points="320.75,-189.5 310.75,-193 320.75,-196.5 320.75,-189.5"/>
</g>
<!-- 20 -->
<g id="node6" class="node">
<title>20</title>
<polygon fill="none" stroke="black" points="200.34,-109 110.34,-109 110.34,-73 200.34,-73 200.34,-109"/>
<text text-anchor="middle" x="155.34" y="-87.3" font-family="Times,serif" font-size="14.00">20 PREDICT</text>
</g>
<!-- 15&#45;&gt;20 -->
<g id="edge8" class="edge">
<title>15&#45;&gt;20</title>
<path fill="none" stroke="black" d="M155.34,-174.58C155.34,-159.38 155.34,-137.07 155.34,-119.46"/>
<polygon fill="black" stroke="black" points="158.84,-119.22 155.34,-109.22 151.84,-119.22 158.84,-119.22"/>
<text text-anchor="middle" x="190.84" y="-145.8" font-family="Times,serif" font-size="14.00">No uncertain</text>
<text text-anchor="middle" x="190.84" y="-130.8" font-family="Times,serif" font-size="14.00">results</text>
</g>
<!-- end -->
<g id="node8" class="node">
<title>end</title>
<polygon fill="none" stroke="black" points="173.34,-36 137.34,-36 137.34,0 173.34,0 173.34,-36"/>
<polyline fill="none" stroke="black" points="149.34,-36 137.34,-24 "/>
<polyline fill="none" stroke="black" points="137.34,-12 149.34,0 "/>
<polyline fill="none" stroke="black" points="161.34,0 173.34,-12 "/>
<polyline fill="none" stroke="black" points="173.34,-24 161.34,-36 "/>
<text text-anchor="middle" x="155.34" y="-14.3" font-family="Times,serif" font-size="14.00">end</text>
</g>
<!-- 20&#45;&gt;end -->
<g id="edge9" class="edge">
<title>20&#45;&gt;end</title>
<path fill="none" stroke="black" d="M155.34,-72.81C155.34,-64.79 155.34,-55.05 155.34,-46.07"/>
<polygon fill="black" stroke="black" points="158.84,-46.03 155.34,-36.03 151.84,-46.03 158.84,-46.03"/>
</g>
<!-- start -->
<g id="node7" class="node">
<title>start</title>
<polygon fill="none" stroke="black" points="77.34,-386 40.8,-368 77.34,-350 113.87,-368 77.34,-386"/>
<polyline fill="none" stroke="black" points="51.57,-373.3 51.57,-362.7 "/>
<polyline fill="none" stroke="black" points="66.57,-355.3 88.1,-355.3 "/>
<polyline fill="none" stroke="black" points="103.11,-362.7 103.11,-373.3 "/>
<polyline fill="none" stroke="black" points="88.1,-380.7 66.57,-380.7 "/>
<text text-anchor="middle" x="77.34" y="-364.3" font-family="Times,serif" font-size="14.00">start</text>
</g>
<!-- start&#45;&gt;00 -->
<g id="edge1" class="edge">
<title>start&#45;&gt;00</title>
<path fill="none" stroke="black" d="M77.34,-349.81C77.34,-341.79 77.34,-332.05 77.34,-323.07"/>
<polygon fill="black" stroke="black" points="80.84,-323.03 77.34,-313.03 73.84,-323.03 80.84,-323.03"/>
</g>
</g>
</svg>
